<svg xmlns="http://www.w3.org/2000/svg" width="560" height="360" viewBox="0 0 560 360" role="img" aria-label="Component style board">
  <rect width="560" height="360" fill="#f7f9ff"/>
  <text x="26" y="34" font-size="18" font-family="Inter, Segoe UI, sans-serif" fill="#111827" font-weight="700">UI Component Board</text>

  <rect x="26" y="56" width="160" height="126" rx="14" fill="#ffffff" stroke="#dbe4ff"/>
  <text x="42" y="80" font-size="12" font-family="Inter, Segoe UI, sans-serif" fill="#334155" font-weight="700">Buttons</text>
  <rect x="42" y="94" width="120" height="30" rx="10" fill="#4f46e5"/>
  <text x="84" y="113" font-size="10" font-family="Inter, Segoe UI, sans-serif" fill="#ffffff" font-weight="700">Primary</text>
  <rect x="42" y="132" width="120" height="30" rx="10" fill="#ffffff" stroke="#cfd9ff"/>
  <text x="84" y="151" font-size="10" font-family="Inter, Segoe UI, sans-serif" fill="#334155" font-weight="700">Secondary</text>

  <rect x="200" y="56" width="160" height="126" rx="14" fill="#ffffff" stroke="#dbe4ff"/>
  <text x="216" y="80" font-size="12" font-family="Inter, Segoe UI, sans-serif" fill="#334155" font-weight="700">Inputs</text>
  <rect x="216" y="96" width="128" height="32" rx="10" fill="#ffffff" stroke="#cfd9ff"/>
  <rect x="216" y="136" width="128" height="32" rx="10" fill="#f8faff" stroke="#a5b4fc"/>

  <rect x="374" y="56" width="160" height="126" rx="14" fill="#ffffff" stroke="#dbe4ff"/>
  <text x="390" y="80" font-size="12" font-family="Inter, Segoe UI, sans-serif" fill="#334155" font-weight="700">Badges</text>
  <rect x="390" y="94" width="74" height="20" rx="10" fill="#dcfce7"/>
  <text x="409" y="108" font-size="9" font-family="Inter, Segoe UI, sans-serif" fill="#166534" font-weight="700">Applied</text>
  <rect x="390" y="120" width="74" height="20" rx="10" fill="#fef3c7"/>
  <text x="406" y="134" font-size="9" font-family="Inter, Segoe UI, sans-serif" fill="#92400e" font-weight="700">Interview</text>
  <rect x="390" y="146" width="74" height="20" rx="10" fill="#fee2e2"/>
  <text x="411" y="160" font-size="9" font-family="Inter, Segoe UI, sans-serif" fill="#991b1b" font-weight="700">Closed</text>

  <rect x="26" y="196" width="508" height="140" rx="16" fill="#ffffff" stroke="#dbe4ff"/>
  <text x="42" y="220" font-size="12" font-family="Inter, Segoe UI, sans-serif" fill="#334155" font-weight="700">Card + Table System</text>
  <line x1="42" y1="234" x2="518" y2="234" stroke="#edf2ff"/>
  <text x="42" y="252" font-size="10" font-family="Inter, Segoe UI, sans-serif" fill="#64748b">Company</text>
  <text x="182" y="252" font-size="10" font-family="Inter, Segoe UI, sans-serif" fill="#64748b">Role</text>
  <text x="302" y="252" font-size="10" font-family="Inter, Segoe UI, sans-serif" fill="#64748b">Status</text>
  <text x="412" y="252" font-size="10" font-family="Inter, Segoe UI, sans-serif" fill="#64748b">Date</text>
  <line x1="42" y1="262" x2="518" y2="262" stroke="#edf2ff"/>
  <text x="42" y="282" font-size="10" font-family="Inter, Segoe UI, sans-serif" fill="#111827">ZeroTail</text>
  <text x="182" y="282" font-size="10" font-family="Inter, Segoe UI, sans-serif" fill="#334155">Backend Developer</text>
  <rect x="302" y="270" width="72" height="16" rx="8" fill="#dbeafe"/>
  <text x="325" y="281" font-size="9" font-family="Inter, Segoe UI, sans-serif" fill="#1e3a8a" font-weight="700">Offer</text>
  <text x="412" y="282" font-size="10" font-family="Inter, Segoe UI, sans-serif" fill="#334155">03/20/2026</text>
</svg>
