<svg xmlns="http://www.w3.org/2000/svg" width="560" height="360" viewBox="0 0 560 360" role="img" aria-label="Light pastel dashboard mockup">
  <defs>
    <linearGradient id="bg" x1="0" y1="0" x2="1" y2="1">
      <stop offset="0%" stop-color="#f8f9ff"/>
      <stop offset="100%" stop-color="#eef2ff"/>
    </linearGradient>
    <filter id="soft" x="-20%" y="-20%" width="140%" height="140%">
      <feDropShadow dx="0" dy="8" stdDeviation="10" flood-opacity="0.15" flood-color="#64748b"/>
    </filter>
  </defs>
  <rect width="560" height="360" fill="url(#bg)"/>
  <rect x="20" y="20" width="520" height="320" rx="20" fill="#ffffff" stroke="#d9def3" filter="url(#soft)"/>
  <rect x="40" y="40" width="110" height="280" rx="14" fill="#f4f6ff" stroke="#e6ebff"/>
  <text x="58" y="66" font-size="16" font-family="Inter, Segoe UI, sans-serif" fill="#1f2a44" font-weight="700">JobTrack</text>
  <rect x="54" y="86" width="82" height="24" rx="8" fill="#e4e9ff"/>
  <text x="66" y="102" font-size="10" font-family="Inter, Segoe UI, sans-serif" fill="#334155" font-weight="600">Dashboard</text>
  <text x="58" y="130" font-size="10" font-family="Inter, Segoe UI, sans-serif" fill="#64748b">Applications</text>
  <text x="58" y="148" font-size="10" font-family="Inter, Segoe UI, sans-serif" fill="#64748b">Calendar</text>
  <text x="58" y="166" font-size="10" font-family="Inter, Segoe UI, sans-serif" fill="#64748b">Analytics</text>

  <rect x="170" y="40" width="350" height="42" rx="12" fill="#f9faff" stroke="#e4e9ff"/>
  <text x="188" y="66" font-size="13" font-family="Inter, Segoe UI, sans-serif" fill="#111827" font-weight="600">Welcome back, Maya</text>
  <rect x="420" y="50" width="88" height="22" rx="8" fill="#5b6ef5"/>
  <text x="444" y="64" font-size="10" font-family="Inter, Segoe UI, sans-serif" fill="#ffffff" font-weight="600">New Job</text>

  <rect x="170" y="96" width="170" height="108" rx="14" fill="#fff8f2" stroke="#f2ded0"/>
  <text x="186" y="120" font-size="12" font-family="Inter, Segoe UI, sans-serif" fill="#7c2d12" font-weight="700">Interview Soon</text>
  <text x="186" y="140" font-size="24" font-family="Inter, Segoe UI, sans-serif" fill="#b45309" font-weight="700">4</text>
  <text x="186" y="160" font-size="10" font-family="Inter, Segoe UI, sans-serif" fill="#9a3412">Action needed this week</text>

  <rect x="350" y="96" width="170" height="108" rx="14" fill="#f2fbff" stroke="#d3ecf7"/>
  <text x="366" y="120" font-size="12" font-family="Inter, Segoe UI, sans-serif" fill="#0f3d4e" font-weight="700">Applied</text>
  <text x="366" y="140" font-size="24" font-family="Inter, Segoe UI, sans-serif" fill="#0369a1" font-weight="700">12</text>
  <text x="366" y="160" font-size="10" font-family="Inter, Segoe UI, sans-serif" fill="#155e75">Across top companies</text>

  <rect x="170" y="216" width="350" height="104" rx="14" fill="#fcfcff" stroke="#e4e9ff"/>
  <text x="186" y="238" font-size="12" font-family="Inter, Segoe UI, sans-serif" fill="#1f2937" font-weight="700">Recent Applications</text>
  <line x1="186" y1="250" x2="504" y2="250" stroke="#ebefff"/>
  <text x="186" y="268" font-size="10" font-family="Inter, Segoe UI, sans-serif" fill="#334155">Linear</text>
  <text x="266" y="268" font-size="10" font-family="Inter, Segoe UI, sans-serif" fill="#64748b">Frontend Engineer</text>
  <rect x="430" y="258" width="72" height="16" rx="8" fill="#dcfce7"/>
  <text x="447" y="269" font-size="9" font-family="Inter, Segoe UI, sans-serif" fill="#166534" font-weight="700">Applied</text>

  <text x="186" y="292" font-size="10" font-family="Inter, Segoe UI, sans-serif" fill="#334155">Stripe</text>
  <text x="266" y="292" font-size="10" font-family="Inter, Segoe UI, sans-serif" fill="#64748b">Product Engineer</text>
  <rect x="430" y="282" width="72" height="16" rx="8" fill="#fef3c7"/>
  <text x="444" y="293" font-size="9" font-family="Inter, Segoe UI, sans-serif" fill="#92400e" font-weight="700">Interview</text>
</svg>
