<svg xmlns="http://www.w3.org/2000/svg" width="560" height="360" viewBox="0 0 560 360" role="img" aria-label="Accent heavy dashboard mockup">
  <defs>
    <linearGradient id="bga" x1="0" y1="0" x2="1" y2="1">
      <stop offset="0%" stop-color="#f0f4ff"/>
      <stop offset="100%" stop-color="#e8ecff"/>
    </linearGradient>
    <linearGradient id="accent" x1="0" y1="0" x2="1" y2="1">
      <stop offset="0%" stop-color="#6366f1"/>
      <stop offset="100%" stop-color="#8b5cf6"/>
    </linearGradient>
  </defs>
  <rect width="560" height="360" fill="url(#bga)"/>
  <rect x="22" y="22" width="516" height="316" rx="20" fill="#f8faff" stroke="#cfd9ff"/>
  <rect x="42" y="42" width="476" height="44" rx="14" fill="#ffffff" stroke="#dbe4ff"/>
  <text x="60" y="69" font-size="15" font-family="Inter, Segoe UI, sans-serif" fill="#1e293b" font-weight="700">Tasklyn</text>
  <rect x="180" y="52" width="88" height="24" rx="10" fill="url(#accent)"/>
  <text x="206" y="68" font-size="10" font-family="Inter, Segoe UI, sans-serif" fill="#ffffff" font-weight="700">Dashboard</text>

  <rect x="42" y="100" width="292" height="110" rx="14" fill="#ffffff" stroke="#dbe4ff"/>
  <text x="58" y="122" font-size="13" font-family="Inter, Segoe UI, sans-serif" fill="#1f2937" font-weight="700">Today Tasks</text>
  <rect x="58" y="136" width="82" height="56" rx="12" fill="#dbeafe"/>
  <rect x="150" y="136" width="82" height="56" rx="12" fill="#ede9fe"/>
  <rect x="242" y="136" width="76" height="56" rx="12" fill="#fee2e2"/>

  <rect x="348" y="100" width="170" height="110" rx="14" fill="#ffffff" stroke="#dbe4ff"/>
  <text x="364" y="122" font-size="13" font-family="Inter, Segoe UI, sans-serif" fill="#1f2937" font-weight="700">Project Complete</text>
  <circle cx="430" cy="162" r="36" fill="none" stroke="#e2e8f0" stroke-width="10"/>
  <circle cx="430" cy="162" r="36" fill="none" stroke="#8b5cf6" stroke-width="10" stroke-dasharray="150 80" stroke-linecap="round"/>

  <rect x="42" y="222" width="150" height="98" rx="14" fill="#ffffff" stroke="#dbe4ff"/>
  <text x="58" y="244" font-size="12" font-family="Inter, Segoe UI, sans-serif" fill="#334155" font-weight="700">Rank</text>
  <line x1="58" y1="258" x2="176" y2="258" stroke="#edf2ff"/>
  <line x1="58" y1="278" x2="176" y2="278" stroke="#edf2ff"/>

  <rect x="206" y="222" width="150" height="98" rx="14" fill="#ffffff" stroke="#dbe4ff"/>
  <text x="222" y="244" font-size="12" font-family="Inter, Segoe UI, sans-serif" fill="#334155" font-weight="700">Tracker</text>
  <rect x="222" y="258" width="18" height="48" rx="9" fill="#fb923c"/>
  <rect x="246" y="268" width="18" height="38" rx="9" fill="#cbd5e1"/>
  <rect x="270" y="250" width="18" height="56" rx="9" fill="#60a5fa"/>

  <rect x="370" y="222" width="148" height="98" rx="14" fill="#ffffff" stroke="#dbe4ff"/>
  <text x="386" y="244" font-size="12" font-family="Inter, Segoe UI, sans-serif" fill="#334155" font-weight="700">Chat</text>
  <rect x="386" y="258" width="116" height="20" rx="10" fill="#ede9fe"/>
  <rect x="386" y="284" width="90" height="20" rx="10" fill="#fee2e2"/>
</svg>
