<svg xmlns="http://www.w3.org/2000/svg" width="560" height="360" viewBox="0 0 560 360" role="img" aria-label="Dark dashboard mockup">
  <defs>
    <linearGradient id="bgd" x1="0" y1="0" x2="1" y2="1">
      <stop offset="0%" stop-color="#0b1220"/>
      <stop offset="100%" stop-color="#111827"/>
    </linearGradient>
    <filter id="softd" x="-20%" y="-20%" width="140%" height="140%">
      <feDropShadow dx="0" dy="10" stdDeviation="10" flood-opacity="0.35" flood-color="#020617"/>
    </filter>
  </defs>
  <rect width="560" height="360" fill="url(#bgd)"/>
  <rect x="20" y="20" width="520" height="320" rx="20" fill="#0f172a" stroke="#1e293b" filter="url(#softd)"/>
  <rect x="40" y="40" width="110" height="280" rx="14" fill="#111a2e" stroke="#1f2a44"/>
  <text x="58" y="66" font-size="16" font-family="Inter, Segoe UI, sans-serif" fill="#e2e8f0" font-weight="700">JobTrack</text>
  <rect x="54" y="86" width="82" height="24" rx="8" fill="#24324f"/>
  <text x="66" y="102" font-size="10" font-family="Inter, Segoe UI, sans-serif" fill="#cbd5e1" font-weight="600">Dashboard</text>

  <rect x="170" y="40" width="350" height="42" rx="12" fill="#111a2e" stroke="#223150"/>
  <text x="188" y="66" font-size="13" font-family="Inter, Segoe UI, sans-serif" fill="#f1f5f9" font-weight="600">Design Resources</text>
  <rect x="420" y="50" width="88" height="22" rx="8" fill="#7c3aed"/>
  <text x="439" y="64" font-size="10" font-family="Inter, Segoe UI, sans-serif" fill="#ffffff" font-weight="600">New Board</text>

  <rect x="170" y="96" width="110" height="208" rx="16" fill="#1d2540" stroke="#2a3558"/>
  <text x="184" y="120" font-size="11" font-family="Inter, Segoe UI, sans-serif" fill="#c4b5fd" font-weight="700">Typography</text>
  <text x="184" y="160" font-size="36" font-family="Inter, Segoe UI, sans-serif" fill="#f8fafc" font-weight="700">Bold</text>
  <text x="184" y="190" font-size="24" font-family="Inter, Segoe UI, sans-serif" fill="#a5b4fc" font-weight="700">Heavy</text>

  <rect x="292" y="96" width="110" height="208" rx="16" fill="#131f38" stroke="#223150"/>
  <text x="306" y="120" font-size="11" font-family="Inter, Segoe UI, sans-serif" fill="#93c5fd" font-weight="700">Illustration</text>
  <rect x="312" y="146" width="70" height="70" rx="14" fill="#1e3a8a" opacity="0.45"/>
  <circle cx="347" cy="181" r="20" fill="#60a5fa" opacity="0.75"/>

  <rect x="414" y="96" width="106" height="208" rx="16" fill="#3f2f89" stroke="#6d5ccc"/>
  <text x="428" y="120" font-size="11" font-family="Inter, Segoe UI, sans-serif" fill="#e9d5ff" font-weight="700">Brand Kit</text>
  <text x="428" y="164" font-size="20" font-family="Inter, Segoe UI, sans-serif" fill="#ffffff" font-weight="700">Clean UI</text>
  <text x="428" y="186" font-size="10" font-family="Inter, Segoe UI, sans-serif" fill="#ddd6fe">Soft depth with contrast</text>
</svg>
